<?xml version="1.0" standalone="no"?>
<!DOCTYPE svg PUBLIC "-//W3C//DTD SVG 20010904//EN"
 "http://www.w3.org/TR/2001/REC-SVG-20010904/DTD/svg10.dtd">
<svg version="1.0" xmlns="http://www.w3.org/2000/svg"
 width="200.000000pt" height="200.000000pt" viewBox="0 0 200.000000 200.000000"
 preserveAspectRatio="xMidYMid meet">

<g transform="translate(0.000000,200.000000) scale(0.100000,-0.100000)"
fill="#000000" stroke="none">
<path d="M1010 1229 l0 -731 -22 6 c-13 3 -50 9 -83 12 -122 13 -245 -34 -342
-131 -49 -50 -65 -73 -78 -118 -28 -96 3 -169 90 -208 135 -62 384 41 457 189
l23 47 -3 527 c-2 290 -1 550 3 577 l7 49 52 -18 c226 -77 346 -242 346 -474
0 -109 -14 -169 -76 -317 -25 -61 -43 -113 -41 -115 37 -37 153 235 177 415
13 93 7 155 -21 247 -26 85 -81 165 -204 296 -168 179 -221 273 -239 421 -6
47 -11 57 -27 57 -19 0 -19 -16 -19 -731z"/>
</g>
</svg>
