<?xml version="1.0" standalone="no"?>
<!DOCTYPE svg PUBLIC "-//W3C//DTD SVG 20010904//EN"
 "http://www.w3.org/TR/2001/REC-SVG-20010904/DTD/svg10.dtd">
<svg version="1.0" xmlns="http://www.w3.org/2000/svg"
 width="200.000000pt" height="200.000000pt" viewBox="0 0 200.000000 200.000000"
 preserveAspectRatio="xMidYMid meet">

<g transform="translate(0.000000,200.000000) scale(0.100000,-0.100000)"
fill="#000000" stroke="none">
<path d="M940 1282 l0 -677 -72 3 c-207 11 -441 -176 -442 -351 0 -58 24 -94
84 -124 109 -56 289 -3 416 122 108 107 104 87 104 558 0 224 2 407 5 407 14
0 96 -47 152 -86 114 -81 197 -201 222 -322 14 -66 14 -173 0 -231 -5 -24 -8
-46 -5 -48 3 -3 17 19 32 49 39 76 44 181 13 303 -18 71 -24 131 -28 280 -5
160 -9 196 -26 229 -10 22 -72 92 -136 155 -96 95 -134 143 -213 264 -53 81
-98 147 -101 147 -3 0 -5 -305 -5 -678z m206 237 c161 -108 253 -263 242 -410
l-3 -43 -109 120 c-138 150 -216 255 -261 349 -19 41 -35 77 -35 80 0 8 78
-38 166 -96z"/>
</g>
</svg>
