<?xml version="1.0" standalone="no"?>
<!DOCTYPE svg PUBLIC "-//W3C//DTD SVG 20010904//EN"
 "http://www.w3.org/TR/2001/REC-SVG-20010904/DTD/svg10.dtd">
<svg version="1.0" xmlns="http://www.w3.org/2000/svg"
 width="200.000000pt" height="250.000000pt" viewBox="0 0 1200.000000 2400.000000"
 preserveAspectRatio="xMidYMid meet">

<g transform="translate(0.000000,2400.000000) scale(0.100000,-0.100000)"
fill="#000000" stroke="none">
<path d="M5432 22111 l-42 -50 2 -8925 c2 -4909 2 -8926 0 -8926 -2 0 -45 29
-95 64 -133 92 -322 203 -477 281 -546 274 -1046 386 -1653 372 -273 -6 -577
-52 -919 -137 -836 -209 -1342 -589 -1513 -1135 -50 -158 -66 -276 -66 -479 1
-320 57 -589 173 -821 290 -581 914 -916 1898 -1020 209 -22 699 -37 1035 -33
l290 5 150 35 c685 164 1169 368 1558 655 126 93 352 319 434 433 128 179 228
391 278 588 54 216 58 257 62 740 4 425 4 452 -13 452 -16 0 -16 1 -1 18 16
17 17 251 17 3160 l0 3142 73 -61 c180 -152 465 -321 916 -542 268 -132 302
-146 620 -252 640 -214 1038 -376 1415 -578 453 -241 739 -499 823 -740 32
-92 39 -194 24 -370 -44 -501 -236 -899 -587 -1218 -43 -39 -79 -76 -79 -80 0
-5 73 -88 163 -184 118 -126 170 -175 186 -175 54 0 497 418 662 625 472 591
704 1219 731 1975 11 329 -35 571 -157 828 -173 363 -514 708 -967 979 -51 31
-93 59 -93 63 0 5 21 26 48 48 84 72 329 324 419 433 421 509 658 1070 735
1744 19 172 16 539 -6 659 -97 532 -445 987 -1039 1361 l-108 68 138 136 c225
223 360 384 511 615 275 419 444 895 502 1416 19 172 24 427 11 555 -95 913
-908 1608 -2456 2100 -390 124 -893 321 -1285 505 -592 277 -993 558 -1156
810 l-44 69 0 371 0 371 -42 50 -43 49 -495 0 -495 0 -43 -49z m1356 -3149
c141 -96 314 -196 562 -325 318 -165 488 -238 754 -326 1449 -477 2202 -931
2311 -1393 37 -157 -4 -534 -86 -779 -85 -260 -266 -546 -455 -718 l-54 -49
-102 45 c-205 89 -444 174 -903 320 -44 14 -168 59 -275 100 -1058 405 -1720
795 -1946 1144 l-44 68 0 1051 0 1052 61 -55 c33 -30 113 -91 177 -135z m-33
-4247 c298 -212 956 -546 1282 -650 1174 -375 1975 -789 2252 -1164 131 -177
157 -293 130 -581 -44 -488 -250 -911 -586 -1205 l-73 -64 -97 41 c-162 67
-427 163 -618 223 -599 187 -1331 499 -1755 745 -357 208 -609 419 -711 595
l-29 50 0 1088 0 1088 59 -52 c32 -28 98 -79 146 -114z"/>
</g>
</svg>
